<mxfile host="65bd71144e">
    <diagram id="8wafxuUxFeutlOPh6ar2" name="Page-1">
        <mxGraphModel dx="651" dy="537" grid="1" gridSize="10" guides="1" tooltips="1" connect="1" arrows="1" fold="1" page="1" pageScale="1" pageWidth="1169" pageHeight="827" math="0" shadow="0">
            <root>
                <mxCell id="0"/>
                <mxCell id="1" parent="0"/>
                <mxCell id="4" value="&lt;div style=&quot;text-align: center&quot;&gt;&lt;b&gt;&lt;br&gt;&lt;/b&gt;&lt;/div&gt;&lt;div style=&quot;text-align: center&quot;&gt;&lt;b&gt;raw-data-pre-processing.ipynb&lt;/b&gt;&lt;/div&gt;Input:&lt;br&gt;1.&amp;nbsp; Raw NH3 and colour data from 12/23 to 1/20.&lt;br&gt;-----------------------------------------------------------------------------&lt;br&gt;Purpose: Exp-1&lt;br&gt;1. Perform data pre-processing on NH3.&lt;br&gt;2. Perform outlier removal on NH3.&lt;br&gt;3. Generate pre-processed dataset for all four Exp-.&lt;br&gt;4. Demonstate/explain the reasons behind selecting SG &lt;br&gt;and EWMA filters and OR by visulization.&lt;br&gt;&lt;br&gt;Tasks: Exp-1&lt;br&gt;1. Apply SG filters (windows = 5,7,9) to NH3.&lt;br&gt;2. Apply EWMA filters (span = 2,3,4) to NH3.&lt;br&gt;3. Apply outlier removal to NH3.&lt;br&gt;4. Plot SG filters.&lt;br&gt;5. Plot EWMA filters.&lt;br&gt;6. Plot peak analysis.&lt;br&gt;&lt;br&gt;Export:&lt;br&gt;1. obs, sg5/7/9, ewma2/3/4, and or (train.csv)&lt;br&gt;2. test.csv&lt;br&gt;-----------------------------------------------------------------------------&lt;br&gt;Purpose: Exp-2&lt;br&gt;&lt;br&gt;Tasks: Exp-2&lt;br&gt;" style="text;html=1;align=left;verticalAlign=middle;resizable=0;points=[];autosize=1;strokeColor=default;fillColor=none;rounded=0;" vertex="1" parent="1">
                    <mxGeometry x="45" y="45" width="320" height="380" as="geometry"/>
                </mxCell>
            </root>
        </mxGraphModel>
    </diagram>
</mxfile>